<svg xmlns="http://www.w3.org/2000/svg" viewBox="0 0 128 128">
  <defs>
    <linearGradient id="bg" x1="0" y1="0" x2="1" y2="1">
      <stop offset="0%" stop-color="#2e7fff"/>
      <stop offset="100%" stop-color="#ffce1a"/>
    </linearGradient>
  </defs>
  <rect width="128" height="128" rx="24" fill="url(#bg)"/>
  <path d="M30 32h40c10 0 18 8 18 18v48H48c-10 0-18-8-18-18V32z" fill="#ffffff"/>
  <path d="M98 32H58c-10 0-18 8-18 18v48h40c10 0 18-8 18-18V32z" fill="#14356f" opacity=".15"/>
  <path d="M30 78c0 10 8 18 18 18h50" stroke="#14356f" stroke-width="6" fill="none" stroke-linecap="round"/>
  <circle cx="92" cy="36" r="12" fill="#ff5d5d"/>
  <path d="M88 36h8M92 32v8" stroke="#fff" stroke-width="3" stroke-linecap="round"/>
</svg>
